<svg xmlns="http://www.w3.org/2000/svg" xmlns:xlink="http://www.w3.org/1999/xlink" width="500" zoomAndPan="magnify" viewBox="0 0 375 374.999991" height="500" preserveAspectRatio="xMidYMid meet" version="1.0"><defs><clipPath id="1c00e4523a"><path d="M 15.753906 15.753906 L 359.253906 15.753906 L 359.253906 359.253906 L 15.753906 359.253906 Z M 15.753906 15.753906 " clip-rule="nonzero"/></clipPath></defs><g clip-path="url(#1c00e4523a)"><path fill="#ffac80" d="M 187.503906 359.253906 C 92.800781 359.253906 15.753906 282.207031 15.753906 187.503906 C 15.753906 92.800781 92.800781 15.753906 187.503906 15.753906 C 282.207031 15.753906 359.253906 92.800781 359.253906 187.503906 C 359.253906 282.207031 282.207031 359.253906 187.503906 359.253906 Z M 187.503906 359.253906 " fill-opacity="1" fill-rule="nonzero"/></g><path fill="#303030" d="M 139.867188 233.070312 C 137.320312 233.070312 134.753906 232.265625 132.578125 230.597656 L 89.320312 197.484375 C 86.390625 195.242188 84.652344 191.777344 84.609375 188.089844 C 84.566406 184.398438 86.222656 180.894531 89.101562 178.585938 L 131.46875 144.582031 C 136.644531 140.429688 144.203125 141.261719 148.351562 146.433594 C 152.5 151.605469 151.671875 159.164062 146.5 163.3125 L 116.082031 187.726562 L 147.175781 211.527344 C 152.445312 215.554688 153.445312 223.09375 149.414062 228.359375 C 147.046875 231.449219 143.476562 233.070312 139.867188 233.070312 Z M 139.867188 233.070312 " fill-opacity="1" fill-rule="nonzero"/><path fill="#303030" d="M 235.140625 233.070312 C 231.53125 233.070312 227.960938 231.449219 225.597656 228.359375 C 221.5625 223.09375 222.566406 215.554688 227.832031 211.527344 L 258.925781 187.726562 L 228.507812 163.3125 C 223.335938 159.160156 222.503906 151.605469 226.65625 146.433594 C 230.8125 141.261719 238.371094 140.429688 243.539062 144.582031 L 285.910156 178.585938 C 288.789062 180.894531 290.441406 184.398438 290.398438 188.089844 C 290.355469 191.78125 288.621094 195.242188 285.691406 197.484375 L 242.429688 230.597656 C 240.25 232.265625 237.6875 233.070312 235.140625 233.070312 Z M 235.140625 233.070312 " fill-opacity="1" fill-rule="nonzero"/><path fill="#303030" d="M 167.980469 256.058594 C 166.941406 256.058594 165.882812 255.925781 164.828125 255.640625 C 158.429688 253.902344 154.644531 247.308594 156.378906 240.90625 L 187.039062 127.816406 C 188.773438 121.414062 195.367188 117.632812 201.773438 119.367188 C 208.171875 121.101562 211.957031 127.699219 210.222656 134.101562 L 179.5625 247.191406 C 178.113281 252.539062 173.265625 256.058594 167.980469 256.058594 Z M 167.980469 256.058594 " fill-opacity="1" fill-rule="nonzero"/></svg>